<svg width="68" height="44" viewBox="0 0 68 44" fill="none" xmlns="http://www.w3.org/2000/svg">
<path d="M17.4239 13.7215C16.8244 14.4331 15.8651 14.9943 14.9059 14.9141C14.786 13.952 15.2556 12.9298 15.8052 12.2984C16.4047 11.5668 17.4539 11.0457 18.3032 11.0056C18.4032 12.0078 18.0135 12.9899 17.4239 13.7215ZM18.2932 15.1045C16.9043 15.0243 15.7153 15.8962 15.0558 15.8962C14.3863 15.8962 13.3771 15.1446 12.278 15.1646C10.8491 15.1847 9.52015 15.9965 8.79072 17.2893C7.2919 19.8749 8.40103 23.7032 9.84989 25.8078C10.5593 26.85 11.4087 27.9925 12.5278 27.9524C13.5869 27.9123 14.0066 27.2609 15.2856 27.2609C16.5746 27.2609 16.9443 27.9524 18.0634 27.9324C19.2225 27.9123 19.9519 26.8901 20.6614 25.8479C21.4707 24.6653 21.8005 23.5128 21.8205 23.4527C21.8005 23.4326 19.5822 22.5808 19.5622 20.0152C19.5423 17.8705 21.3109 16.8483 21.3908 16.7882C20.3916 15.305 18.8328 15.1446 18.2932 15.1045ZM26.3169 12.1982V27.8221H28.735V22.4805H32.0824C35.14 22.4805 37.2883 20.376 37.2883 17.3294C37.2883 14.2827 35.1799 12.1982 32.1623 12.1982H26.3169V12.1982ZM28.735 14.2426H31.5228C33.6212 14.2426 34.8202 15.3651 34.8202 17.3394C34.8202 19.3137 33.6212 20.4461 31.5128 20.4461H28.735V14.2426V14.2426ZM41.7048 27.9424C43.2236 27.9424 44.6325 27.1707 45.272 25.9481H45.3219V27.8221H47.5602V20.0453C47.5602 17.7904 45.7616 16.3372 42.9938 16.3372C40.4258 16.3372 38.5273 17.8104 38.4574 19.8348H40.6356C40.8155 18.8727 41.7048 18.2413 42.9238 18.2413C44.4027 18.2413 45.232 18.9328 45.232 20.2056V21.0675L42.2144 21.2479C39.4066 21.4182 37.8878 22.5707 37.8878 24.5751C37.8878 26.5995 39.4566 27.9424 41.7048 27.9424ZM42.3543 26.0884C41.0653 26.0884 40.2459 25.467 40.2459 24.515C40.2459 23.5328 41.0353 22.9616 42.5441 22.8714L45.232 22.701V23.5829C45.232 25.0461 43.993 26.0884 42.3543 26.0884ZM50.5478 32.0714C52.906 32.0714 54.0151 31.1694 54.9843 28.4335L59.231 16.4875H56.7729L53.9252 25.7176H53.8752L51.0275 16.4875H48.4994L52.5962 27.8622L52.3764 28.5537C52.0067 29.7263 51.4072 30.1773 50.338 30.1773C50.1481 30.1773 49.7784 30.1572 49.6286 30.1372V32.0112C49.7684 32.0513 50.368 32.0714 50.5478 32.0714Z" fill="#888888"/>
</svg>
