<svg width="68" height="44" viewBox="0 0 68 44" fill="none" xmlns="http://www.w3.org/2000/svg">
<path d="M39.6606 32.0468H27.8828V10.8801H39.6606V32.0468Z" fill="#FF5F00"/>
<path d="M28.6376 21.4616C28.6376 17.1678 30.6479 13.343 33.7786 10.8782C31.4892 9.07581 28.5999 8.00002 25.4598 8.00002C18.026 8.00002 12 14.0269 12 21.4616C12 28.8963 18.026 34.9231 25.4598 34.9231C28.5999 34.9231 31.4892 33.8473 33.7786 32.0449C30.6479 29.5801 28.6376 25.7553 28.6376 21.4616Z" fill="#EB001B"/>
<path d="M55.5451 21.4616C55.5451 28.8963 49.5191 34.9231 42.0853 34.9231C38.9452 34.9231 36.0559 33.8473 33.7656 32.0449C36.8972 29.5801 38.9075 25.7553 38.9075 21.4616C38.9075 17.1678 36.8972 13.343 33.7656 10.8782C36.0559 9.07581 38.9452 8.00002 42.0853 8.00002C49.5191 8.00002 55.5451 14.0269 55.5451 21.4616Z" fill="#F79E1B"/>
<path d="M22.1285 21.5469C22.1285 20.9589 22.5139 20.4759 23.1435 20.4759C23.7451 20.4759 24.1513 20.9381 24.1513 21.5469C24.1513 22.1558 23.7451 22.618 23.1435 22.618C22.5139 22.618 22.1285 22.1349 22.1285 21.5469ZM24.837 21.5469V19.8743H24.1096V20.2804C23.8789 19.9792 23.5288 19.7902 23.053 19.7902C22.1149 19.7902 21.3795 20.5255 21.3795 21.5469C21.3795 22.5691 22.1149 23.3037 23.053 23.3037C23.5288 23.3037 23.8789 23.1147 24.1096 22.8134V23.2196H24.837V21.5469ZM49.4175 21.5469C49.4175 20.9589 49.8028 20.4759 50.4325 20.4759C51.0349 20.4759 51.4402 20.9381 51.4402 21.5469C51.4402 22.1558 51.0349 22.618 50.4325 22.618C49.8028 22.618 49.4175 22.1349 49.4175 21.5469ZM52.1268 21.5469V18.5308H51.3986V20.2804C51.1679 19.9792 50.8178 19.7902 50.3419 19.7902C49.4039 19.7902 48.6685 20.5255 48.6685 21.5469C48.6685 22.5691 49.4039 23.3037 50.3419 23.3037C50.8178 23.3037 51.1679 23.1147 51.3986 22.8134V23.2196H52.1268V21.5469ZM33.866 20.4414C34.3347 20.4414 34.6359 20.7354 34.7128 21.2529H32.9768C33.0545 20.7699 33.3477 20.4414 33.866 20.4414ZM33.8805 19.7902C32.8999 19.7902 32.2142 20.5039 32.2142 21.5469C32.2142 22.6108 32.928 23.3037 33.9293 23.3037C34.4332 23.3037 34.8946 23.1779 35.3008 22.8351L34.9443 22.2959C34.6639 22.5194 34.3066 22.646 33.971 22.646C33.5023 22.646 33.0754 22.4289 32.9704 21.8265H35.4546C35.4618 21.736 35.469 21.6447 35.469 21.5469C35.4618 20.5039 34.8177 19.7902 33.8805 19.7902ZM42.6635 21.5469C42.6635 20.9589 43.0489 20.4759 43.6785 20.4759C44.2801 20.4759 44.6863 20.9381 44.6863 21.5469C44.6863 22.1558 44.2801 22.618 43.6785 22.618C43.0489 22.618 42.6635 22.1349 42.6635 21.5469ZM45.372 21.5469V19.8743H44.6446V20.2804C44.4131 19.9792 44.0638 19.7902 43.588 19.7902C42.6499 19.7902 41.9145 20.5255 41.9145 21.5469C41.9145 22.5691 42.6499 23.3037 43.588 23.3037C44.0638 23.3037 44.4131 23.1147 44.6446 22.8134V23.2196H45.372V21.5469ZM38.5556 21.5469C38.5556 22.5619 39.2621 23.3037 40.3404 23.3037C40.8443 23.3037 41.1799 23.1916 41.5436 22.9048L41.1944 22.3168C40.9212 22.513 40.6344 22.618 40.3188 22.618C39.738 22.6108 39.311 22.191 39.311 21.5469C39.311 20.9029 39.738 20.4831 40.3188 20.4759C40.6344 20.4759 40.9212 20.5808 41.1944 20.7771L41.5436 20.1891C41.1799 19.9023 40.8443 19.7902 40.3404 19.7902C39.2621 19.7902 38.5556 20.532 38.5556 21.5469ZM47.9339 19.7902C47.5141 19.7902 47.2409 19.9864 47.0519 20.2804V19.8743H46.3309V23.2196H47.0591V21.3443C47.0591 20.7907 47.297 20.4831 47.7729 20.4831C47.9203 20.4831 48.0741 20.5039 48.2279 20.5672L48.4522 19.8815C48.2912 19.8182 48.0813 19.7902 47.9339 19.7902ZM28.4347 20.1402C28.0846 19.9095 27.6023 19.7902 27.0704 19.7902C26.2229 19.7902 25.6773 20.1963 25.6773 20.8612C25.6773 21.4067 26.0835 21.7432 26.8317 21.8481L27.1754 21.897C27.5743 21.9531 27.7626 22.058 27.7626 22.2471C27.7626 22.5058 27.4966 22.6532 26.9999 22.6532C26.4961 22.6532 26.1324 22.4922 25.8872 22.3032L25.5444 22.8695C25.9433 23.1635 26.4472 23.3037 26.9927 23.3037C27.9588 23.3037 28.5188 22.8487 28.5188 22.2118C28.5188 21.6238 28.0782 21.3162 27.35 21.2113L27.0071 21.1616C26.6923 21.12 26.44 21.0575 26.44 20.8332C26.44 20.588 26.6779 20.4414 27.0768 20.4414C27.5038 20.4414 27.9172 20.6025 28.1198 20.7282L28.4347 20.1402ZM37.8202 19.7902C37.4004 19.7902 37.1272 19.9864 36.939 20.2804V19.8743H36.218V23.2196H36.9454V21.3443C36.9454 20.7907 37.1833 20.4831 37.6592 20.4831C37.8066 20.4831 37.9604 20.5039 38.1142 20.5672L38.3385 19.8815C38.1775 19.8182 37.9676 19.7902 37.8202 19.7902ZM31.6126 19.8743H30.423V18.8593H29.6876V19.8743H29.0091V20.5392H29.6876V22.0652C29.6876 22.8415 29.9888 23.3037 30.8491 23.3037C31.1648 23.3037 31.5285 23.206 31.7592 23.045L31.5493 22.4217C31.3322 22.5475 31.0943 22.6108 30.9052 22.6108C30.5415 22.6108 30.423 22.3865 30.423 22.0508V20.5392H31.6126V19.8743ZM20.7363 23.2196V21.12C20.7363 20.3293 20.2324 19.7974 19.4201 19.7902C18.9931 19.7829 18.5525 19.9159 18.2441 20.3854C18.0134 20.0145 17.6497 19.7902 17.1386 19.7902C16.7813 19.7902 16.432 19.8951 16.1589 20.2868V19.8743H15.4307V23.2196H16.1653V21.3651C16.1653 20.7843 16.4873 20.4759 16.9848 20.4759C17.4678 20.4759 17.7122 20.7907 17.7122 21.3579V23.2196H18.4475V21.3651C18.4475 20.7843 18.7832 20.4759 19.2663 20.4759C19.7629 20.4759 20.0009 20.7907 20.0009 21.3579V23.2196H20.7363Z" fill="white"/>
</svg>
