<svg width="68" height="44" viewBox="0 0 68 44" fill="none" xmlns="http://www.w3.org/2000/svg">
<path d="M20.0214 28.134H17.2313C17.0404 28.134 16.878 28.2727 16.8482 28.4612L15.7197 35.6159C15.6973 35.7571 15.8066 35.8844 15.9498 35.8844H17.2819C17.4728 35.8844 17.6352 35.7457 17.665 35.5568L17.9693 33.6271C17.9987 33.4382 18.1615 33.2994 18.352 33.2994H19.2353C21.0732 33.2994 22.134 32.4101 22.411 30.6476C22.5358 29.8765 22.4163 29.2707 22.0552 28.8464C21.6587 28.3805 20.9553 28.134 20.0214 28.134ZM20.3433 30.7471C20.1908 31.7483 19.4258 31.7483 18.6861 31.7483H18.2651L18.5605 29.8785C18.578 29.7655 18.6759 29.6823 18.7902 29.6823H18.9831C19.487 29.6823 19.9623 29.6823 20.2079 29.9695C20.3544 30.1409 20.3992 30.3955 20.3433 30.7471Z" fill="#253B80"/>
<path d="M28.3625 30.7148H27.0264C26.9126 30.7148 26.8143 30.798 26.7967 30.911L26.7376 31.2847L26.6441 31.1493C26.3549 30.7295 25.7099 30.5891 25.0661 30.5891C23.5896 30.5891 22.3285 31.7074 22.0829 33.2761C21.9552 34.0586 22.1368 34.8068 22.5807 35.3286C22.9878 35.8084 23.5704 36.0083 24.2636 36.0083C25.4532 36.0083 26.1129 35.2433 26.1129 35.2433L26.0534 35.6146C26.0309 35.7566 26.1403 35.8839 26.2827 35.8839H27.4862C27.6775 35.8839 27.8391 35.7451 27.8693 35.5562L28.5914 30.9832C28.6143 30.8425 28.5053 30.7148 28.3625 30.7148ZM26.5001 33.3152C26.3712 34.0785 25.7653 34.591 24.9926 34.591C24.6047 34.591 24.2946 34.4665 24.0955 34.2307C23.898 33.9965 23.823 33.6632 23.8858 33.292C24.0061 32.5352 24.6222 32.006 25.3831 32.006C25.7625 32.006 26.0709 32.1321 26.2741 32.3699C26.4777 32.6102 26.5585 32.9456 26.5001 33.3152Z" fill="#253B80"/>
<path d="M35.4771 30.7146H34.1345C34.0064 30.7146 33.886 30.7782 33.8134 30.8847L31.9616 33.6125L31.1766 30.9912C31.1273 30.8272 30.9759 30.7146 30.8046 30.7146H29.4852C29.3248 30.7146 29.2134 30.8713 29.2644 31.0222L30.7434 35.3623L29.353 37.3251C29.2436 37.4797 29.3538 37.6923 29.5427 37.6923H30.8837C31.011 37.6923 31.1301 37.6302 31.2023 37.5258L35.6681 31.0797C35.775 30.9255 35.6652 30.7146 35.4771 30.7146Z" fill="#253B80"/>
<path d="M39.9238 28.1338H37.1332C36.9427 28.1338 36.7803 28.2725 36.7505 28.461L35.6221 35.6157C35.5996 35.7569 35.709 35.8841 35.8514 35.8841H37.2834C37.4164 35.8841 37.5302 35.7871 37.551 35.6549L37.8713 33.6268C37.9006 33.4379 38.0634 33.2992 38.2539 33.2992H39.1368C40.9752 33.2992 42.0355 32.4098 42.3129 30.6473C42.4382 29.8763 42.3178 29.2704 41.9567 28.8461C41.5606 28.3802 40.8577 28.1338 39.9238 28.1338ZM40.2457 30.7469C40.0935 31.7481 39.3286 31.7481 38.5885 31.7481H38.1679L38.4636 29.8783C38.4812 29.7653 38.5783 29.6821 38.6929 29.6821H38.8859C39.3893 29.6821 39.865 29.6821 40.1106 29.9693C40.2571 30.1406 40.3016 30.3952 40.2457 30.7469Z" fill="#179BD7"/>
<path d="M48.2641 30.7148H46.9288C46.8142 30.7148 46.7167 30.798 46.6995 30.911L46.6404 31.2847L46.5465 31.1493C46.2573 30.7295 45.6127 30.5891 44.9689 30.5891C43.4924 30.5891 42.2317 31.7074 41.9861 33.2761C41.8589 34.0586 42.0396 34.8068 42.4835 35.3286C42.8914 35.8084 43.4732 36.0083 44.1664 36.0083C45.356 36.0083 46.0157 35.2433 46.0157 35.2433L45.9562 35.6146C45.9337 35.7566 46.0431 35.8839 46.1863 35.8839H47.3894C47.5799 35.8839 47.7423 35.7451 47.7721 35.5562L48.4946 30.9832C48.5167 30.8425 48.4073 30.7148 48.2641 30.7148ZM46.4017 33.3152C46.2736 34.0785 45.6669 34.591 44.8942 34.591C44.507 34.591 44.1962 34.4665 43.9971 34.2307C43.7996 33.9965 43.7254 33.6632 43.7874 33.292C43.9085 32.5352 44.5238 32.006 45.2846 32.006C45.6641 32.006 45.9725 32.1321 46.1757 32.3699C46.3801 32.6102 46.4609 32.9456 46.4017 33.3152Z" fill="#179BD7"/>
<path d="M49.8376 28.3299L48.6924 35.6156C48.6699 35.7568 48.7793 35.8841 48.9217 35.8841H50.073C50.2643 35.8841 50.4267 35.7454 50.4561 35.5565L51.5854 28.4022C51.6078 28.261 51.4985 28.1333 51.3561 28.1333H50.0669C49.953 28.1337 49.8551 28.2169 49.8376 28.3299Z" fill="#179BD7"/>
<path d="M31.052 22.9087L31.3664 20.9119L30.6661 20.8956H27.3223L29.6461 6.16109C29.6533 6.11661 29.6767 6.07514 29.711 6.04568C29.7453 6.01623 29.7891 6 29.8348 6H35.4731C37.3448 6 38.6366 6.38951 39.311 7.1583C39.6272 7.51896 39.8286 7.89584 39.9259 8.31059C40.0281 8.74578 40.0299 9.26572 39.9301 9.89988L39.9229 9.94616V10.3525L40.2391 10.5316C40.5054 10.6729 40.717 10.8346 40.8793 11.0197C41.1498 11.3281 41.3247 11.72 41.3986 12.1846C41.4749 12.6625 41.4497 13.2311 41.3247 13.8749C41.1804 14.6154 40.9472 15.2604 40.6322 15.7882C40.3425 16.2744 39.9734 16.6778 39.5352 16.9903C39.1169 17.2873 38.6198 17.5127 38.0577 17.6569C37.5132 17.7988 36.8922 17.8703 36.2112 17.8703H35.7724C35.4586 17.8703 35.1539 17.9833 34.9146 18.1859C34.6748 18.3927 34.5161 18.6752 34.4674 18.9842L34.4344 19.1639L33.879 22.6833L33.8537 22.8125C33.8471 22.8534 33.8357 22.8738 33.8189 22.8876C33.8038 22.9003 33.7822 22.9087 33.7611 22.9087H31.052Z" fill="#253B80"/>
<path d="M40.5385 9.99316C40.5217 10.1008 40.5024 10.2108 40.4808 10.3238C39.7372 14.1413 37.1934 15.4601 33.9445 15.4601H32.2903C31.893 15.4601 31.5582 15.7486 31.4963 16.1405L30.6493 21.5119L30.4095 23.0344C30.3692 23.2917 30.5676 23.5237 30.8273 23.5237H33.7612C34.1086 23.5237 34.4038 23.2713 34.4585 22.9286L34.4873 22.7796L35.0397 19.274L35.0752 19.0817C35.1293 18.7378 35.425 18.4854 35.7724 18.4854H36.2112C39.0538 18.4854 41.279 17.3313 41.9294 13.9916C42.2011 12.5965 42.0604 11.4316 41.3415 10.6123C41.1239 10.3652 40.8541 10.1603 40.5385 9.99316Z" fill="#179BD7"/>
<path d="M39.7605 9.6829C39.6469 9.64984 39.5297 9.61979 39.4095 9.59274C39.2886 9.56629 39.1648 9.54285 39.0374 9.52241C38.5914 9.45028 38.1027 9.41602 37.5791 9.41602H33.1599C33.0511 9.41602 32.9477 9.44066 32.8552 9.48514C32.6514 9.58312 32.4999 9.77607 32.4632 10.0123L31.5231 15.9667L31.4961 16.1404C31.558 15.7485 31.8928 15.46 32.2901 15.46H33.9443C37.1932 15.46 39.737 14.1406 40.4806 10.3237C40.5028 10.2107 40.5215 10.1007 40.5383 9.99306C40.3502 9.89328 40.1464 9.80793 39.927 9.73519C39.8729 9.71716 39.817 9.69973 39.7605 9.6829Z" fill="#222D65"/>
<path d="M32.4644 10.0123C32.5011 9.77609 32.6526 9.58314 32.8563 9.48576C32.9495 9.44128 33.0523 9.41664 33.1611 9.41664H37.5803C38.1039 9.41664 38.5925 9.4509 39.0386 9.52303C39.166 9.54347 39.2898 9.56691 39.4106 9.59336C39.5308 9.62041 39.6481 9.65046 39.7617 9.68352C39.8182 9.70035 39.8741 9.71778 39.9288 9.73521C40.1482 9.80795 40.3519 9.8939 40.5401 9.99308C40.7613 8.58232 40.5383 7.62178 39.7755 6.752C38.9346 5.79447 37.4168 5.38452 35.4747 5.38452H29.8365C29.4397 5.38452 29.1013 5.67304 29.04 6.06556L26.6916 20.9516C26.6453 21.2461 26.8725 21.5118 27.1694 21.5118H30.6503L31.5243 15.9667L32.4644 10.0123Z" fill="#253B80"/>
</svg>
