<svg width="21" height="20" viewBox="0 0 21 20" fill="none" xmlns="http://www.w3.org/2000/svg">
<path d="M10.0186 1.01855L10.0215 1.01953L12.6055 6.18848L12.8408 6.6582L13.3613 6.73145L18.9131 7.50977L14.9014 11.4248L14.5234 11.7939L14.6152 12.3135L15.6133 18.0039V18.0049C15.6164 18.0236 15.6152 18.0341 15.6143 18.0381L15.6133 18.041H15.5996C15.5742 18.041 15.5533 18.0402 15.5352 18.04L10.4678 15.3574L10 15.1094L9.53223 15.3574L4.43164 18.0576L4.4082 18.0693L4.40137 18.0723C4.4012 18.0684 4.40151 18.064 4.40137 18.0596C4.40097 18.047 4.40055 18.0339 4.40039 18.0195L5.38477 12.4141L5.47656 11.8936L5.09863 11.5254L1.01367 7.54004L1.02051 7.5332L1.03906 7.53125L6.73926 6.73145L7.26953 6.65723L7.50098 6.17383L9.96777 1.04199C9.98015 1.02445 9.99063 1.01308 9.99902 1.00684L10.0186 1.01855Z" stroke="#F8D464" stroke-width="2"/>
</svg>
