<svg width="14" height="13" viewBox="0 0 14 13" fill="none" xmlns="http://www.w3.org/2000/svg">
<path d="M13.3333 5.09397C13.4 4.76064 13.1333 4.36064 12.8 4.36064L9 3.8273L7.26667 0.360636C7.2 0.227303 7.13333 0.160636 7 0.0939693C6.66667 -0.106031 6.26667 0.0273027 6.06667 0.360636L4.4 3.8273L0.6 4.36064C0.4 4.36064 0.266667 4.4273 0.2 4.56064C-0.0666667 4.8273 -0.0666667 5.2273 0.2 5.49397L2.93333 8.16064L2.26667 11.9606C2.26667 12.094 2.26667 12.2273 2.33333 12.3606C2.53333 12.694 2.93333 12.8273 3.26667 12.6273L6.66667 10.8273L10.0667 12.6273C10.1333 12.694 10.2667 12.694 10.4 12.694C10.4667 12.694 10.4667 12.694 10.5333 12.694C10.8667 12.6273 11.1333 12.294 11.0667 11.894L10.4 8.09397L13.1333 5.4273C13.2667 5.36064 13.3333 5.2273 13.3333 5.09397ZM9.2 7.4273C9.06667 7.56064 9 7.8273 9 8.0273L9.46667 10.8273L6.93333 9.49397C6.86667 9.4273 6.73333 9.4273 6.6 9.4273V2.16064L7.86667 4.69397C7.93333 4.89397 8.13333 5.0273 8.4 5.0273L11.2 5.4273L9.2 7.4273Z" fill="#FFCF55"/>
</svg>
