<svg width="68" height="44" viewBox="0 0 68 44" fill="none" xmlns="http://www.w3.org/2000/svg">
<path d="M30.2434 28.9902H26.0996L28.6914 14.1348H32.835L30.2434 28.9902Z" fill="#00579F"/>
<path d="M45.2653 14.4979C44.4479 14.1974 43.1516 13.8655 41.5486 13.8655C37.4565 13.8655 34.5748 15.8882 34.5571 18.7802C34.5231 20.9139 36.6203 22.099 38.1888 22.8104C39.792 23.5374 40.337 24.0119 40.337 24.6599C40.3207 25.6551 39.0415 26.1138 37.8485 26.1138C36.1941 26.1138 35.3076 25.8773 33.9605 25.3236L33.4148 25.0863L32.835 28.421C33.8068 28.8314 35.5974 29.1957 37.4564 29.2116C41.8044 29.2116 44.6351 27.2202 44.6686 24.1383C44.6852 22.4472 43.5778 21.1514 41.1903 20.0926C39.741 19.4129 38.8534 18.9545 38.8534 18.2591C38.8704 17.6268 39.6042 16.9792 41.2402 16.9792C42.5873 16.9475 43.5771 17.2477 44.3269 17.5481L44.7017 17.7058L45.2653 14.4979V14.4979Z" fill="#00579F"/>
<path d="M50.7725 23.7275C51.1138 22.874 52.4269 19.571 52.4269 19.571C52.4097 19.6028 52.7675 18.7019 52.9721 18.1488L53.2617 19.4288C53.2617 19.4288 54.0464 22.9847 54.2168 23.7275C53.5692 23.7275 51.591 23.7275 50.7725 23.7275ZM55.8875 14.1348H52.6823C51.6938 14.1348 50.9429 14.4032 50.5164 15.3673L44.3613 28.99H48.7093C48.7093 28.99 49.4251 27.1565 49.579 26.7616C50.056 26.7616 54.2857 26.7616 54.8993 26.7616C55.0183 27.2832 55.3938 28.99 55.3938 28.99H59.2305L55.8875 14.1348V14.1348Z" fill="#00579F"/>
<path d="M22.638 14.1348L18.5798 24.2648L18.1363 22.2103C17.3861 19.8397 15.0331 17.2641 12.4072 15.9834L16.1244 28.9745H20.5063L27.0197 14.1348H22.638V14.1348Z" fill="#00579F"/>
<path d="M14.8124 14.1338H8.14535L8.07715 14.4339C13.2778 15.6667 16.7221 18.6383 18.1372 22.2099L16.6879 15.3825C16.4493 14.4337 15.716 14.1651 14.8124 14.1338Z" fill="#FAA61A"/>
</svg>
