<svg xmlns="http://www.w3.org/2000/svg" style="display:none"><symbol id="icon-cart" viewBox="0 0 24 24" fill="none"><path d="M8.88666 21.3333C9.71509 21.3333 10.3867 20.6618 10.3867 19.8333C10.3867 19.0049 9.71509 18.3333 8.88666 18.3333C8.05823 18.3333 7.38666 19.0049 7.38666 19.8333C7.38666 20.6618 8.05823 21.3333 8.88666 21.3333Z" fill="#359740"/>
<path d="M18 21.3333C18.8284 21.3333 19.5 20.6618 19.5 19.8333C19.5 19.0049 18.8284 18.3333 18 18.3333C17.1716 18.3333 16.5 19.0049 16.5 19.8333C16.5 20.6618 17.1716 21.3333 18 21.3333Z" fill="#359740"/>
<path d="M22.0533 3.58C21.9913 3.50353 21.9131 3.44174 21.8243 3.39909C21.7356 3.35644 21.6385 3.33399 21.54 3.33333H7.66001L8.09335 4.66667H20.6667L18.8867 12.6667H8.88668L5.84001 3.02C5.80706 2.91764 5.74983 2.82477 5.67321 2.74931C5.5966 2.67386 5.50287 2.61806 5.40001 2.58667L2.66668 1.74667C2.58263 1.72084 2.49432 1.71182 2.40679 1.72012C2.31926 1.72843 2.23422 1.75389 2.15653 1.79506C1.99962 1.8782 1.88217 2.02026 1.83001 2.19C1.77785 2.35974 1.79526 2.54325 1.8784 2.70015C1.96154 2.85706 2.10361 2.97451 2.27335 3.02667L4.66668 3.76L7.72668 13.4267L6.63335 14.32L6.54668 14.4067C6.27624 14.7183 6.12295 15.1145 6.11321 15.5271C6.10348 15.9396 6.23791 16.3426 6.49335 16.6667C6.67505 16.8876 6.90595 17.063 7.16757 17.1788C7.42919 17.2945 7.71427 17.3475 8.00001 17.3333H19.1267C19.3035 17.3333 19.4731 17.2631 19.5981 17.1381C19.7231 17.013 19.7933 16.8435 19.7933 16.6667C19.7933 16.4899 19.7231 16.3203 19.5981 16.1953C19.4731 16.0702 19.3035 16 19.1267 16H7.89335C7.81658 15.9974 7.74178 15.975 7.67619 15.935C7.61059 15.8951 7.55641 15.8389 7.51888 15.7718C7.48134 15.7048 7.46173 15.6293 7.46193 15.5524C7.46213 15.4756 7.48213 15.4002 7.52001 15.3333L9.12668 14H19.42C19.5741 14.0038 19.7248 13.954 19.8463 13.8592C19.9679 13.7644 20.0528 13.6304 20.0867 13.48L22.2 4.14667C22.2203 4.04728 22.2176 3.94458 22.1922 3.84638C22.1668 3.74818 22.1193 3.65707 22.0533 3.58Z" fill="#359740"/></symbol><symbol id="icon-facebook" viewBox="0 0 20 20" fill="none"><path fill-rule="evenodd" clip-rule="evenodd" d="M0 10.0558C0 15.0275 3.61083 19.1617 8.33333 20V12.7775H5.83333V10H8.33333V7.7775C8.33333 5.2775 9.94417 3.88917 12.2225 3.88917C12.9442 3.88917 13.7225 4 14.4442 4.11083V6.66667H13.1667C11.9442 6.66667 11.6667 7.2775 11.6667 8.05583V10H14.3333L13.8892 12.7775H11.6667V20C16.3892 19.1617 20 15.0283 20 10.0558C20 4.525 15.5 0 10 0C4.5 0 0 4.525 0 10.0558Z" fill="#70737C"/></symbol><symbol id="icon-favorite" viewBox="0 0 24 24" fill="none"><path d="M19.6573 5.80092C18.6273 4.78233 17.2619 4.16064 15.8078 4.04815C14.3538 3.93566 12.9068 4.33979 11.7284 5.18754C10.4921 4.28054 8.9533 3.86926 7.42187 4.03652C5.89044 4.20379 4.48014 4.93718 3.47497 6.08901C2.46981 7.24083 1.94444 8.72554 2.00466 10.2441C2.06488 11.7627 2.70623 13.2024 3.79954 14.2733L9.83364 20.2346C10.3389 20.7251 11.0195 21 11.7284 21C12.4374 21 13.1179 20.7251 13.6232 20.2346L19.6573 14.2733C20.7918 13.1474 21.4286 11.6245 21.4286 10.0371C21.4286 8.44971 20.7918 6.9268 19.6573 5.80092ZM18.2872 12.9507L12.2531 18.9024C12.1845 18.9708 12.1027 19.0251 12.0127 19.0621C11.9226 19.0992 11.826 19.1183 11.7284 19.1183C11.6308 19.1183 11.5342 19.0992 11.4442 19.0621C11.3541 19.0251 11.2724 18.9708 11.2037 18.9024L5.1696 12.9219C4.40757 12.1536 3.98086 11.1215 3.98086 10.0467C3.98086 8.97186 4.40757 7.93977 5.1696 7.17145C5.94612 6.41525 6.99341 5.99123 8.08463 5.99123C9.17584 5.99123 10.2231 6.41525 10.9997 7.17145C11.09 7.26128 11.1975 7.33258 11.3159 7.38124C11.4343 7.4299 11.5613 7.45495 11.6895 7.45495C11.8178 7.45495 11.9448 7.4299 12.0632 7.38124C12.1816 7.33258 12.2891 7.26128 12.3794 7.17145C13.156 6.41525 14.2032 5.99123 15.2945 5.99123C16.3857 5.99123 17.433 6.41525 18.2095 7.17145C18.982 7.9297 19.4227 8.9562 19.4372 10.0311C19.4518 11.1059 19.039 12.1436 18.2872 12.9219V12.9507Z" fill="#359740"/></symbol><symbol id="icon-instagram" viewBox="0 0 19 19" fill="none"><path d="M9.36632 6.24445C7.64601 6.24445 6.2421 7.64835 6.2421 9.36867C6.2421 11.089 7.64601 12.4929 9.36632 12.4929C11.0866 12.4929 12.4905 11.089 12.4905 9.36867C12.4905 7.64835 11.0866 6.24445 9.36632 6.24445ZM18.7366 9.36867C18.7366 8.07492 18.7484 6.79288 18.6757 5.50148C18.603 4.00148 18.2609 2.67023 17.164 1.57335C16.0648 0.474134 14.7359 0.134291 13.2359 0.0616346C11.9421 -0.0110216 10.6601 0.000697135 9.36866 0.000697135C8.07491 0.000697135 6.79288 -0.0110216 5.50148 0.0616346C4.00148 0.134291 2.67023 0.476478 1.57335 1.57335C0.474135 2.67257 0.134291 4.00148 0.0616346 5.50148C-0.0110216 6.79523 0.000697135 8.07726 0.000697135 9.36867C0.000697135 10.6601 -0.0110216 11.9444 0.0616346 13.2359C0.134291 14.7359 0.476478 16.0671 1.57335 17.164C2.67257 18.2632 4.00148 18.603 5.50148 18.6757C6.79523 18.7484 8.07726 18.7366 9.36866 18.7366C10.6624 18.7366 11.9444 18.7484 13.2359 18.6757C14.7359 18.603 16.0671 18.2609 17.164 17.164C18.2632 16.0648 18.603 14.7359 18.6757 13.2359C18.7507 11.9444 18.7366 10.6624 18.7366 9.36867ZM9.36632 14.1757C6.70617 14.1757 4.55929 12.0288 4.55929 9.36867C4.55929 6.70851 6.70617 4.56163 9.36632 4.56163C12.0265 4.56163 14.1734 6.70851 14.1734 9.36867C14.1734 12.0288 12.0265 14.1757 9.36632 14.1757ZM14.3702 5.48742C13.7491 5.48742 13.2476 4.98585 13.2476 4.36476C13.2476 3.74367 13.7491 3.2421 14.3702 3.2421C14.9913 3.2421 15.4929 3.74367 15.4929 4.36476C15.4931 4.51224 15.4642 4.65831 15.4078 4.7946C15.3515 4.93089 15.2688 5.05473 15.1645 5.15901C15.0602 5.2633 14.9364 5.34598 14.8001 5.40234C14.6638 5.45869 14.5177 5.4876 14.3702 5.48742Z" fill="#70737C"/></symbol><symbol id="icon-search" viewBox="0 0 16 16" fill="none"><path d="M15.7753 14.6511L12.8091 11.7067C13.9605 10.2699 14.5181 8.44635 14.3672 6.61085C14.2164 4.77535 13.3685 3.06745 11.998 1.83834C10.6275 0.609226 8.83851 -0.0476794 6.9989 0.00269722C5.15928 0.0530739 3.40887 0.806903 2.10758 2.10918C0.806291 3.41146 0.0530336 5.1632 0.00269517 7.00421C-0.0476432 8.84523 0.608763 10.6356 1.83694 12.0071C3.06512 13.3787 4.77172 14.2272 6.60583 14.3781C8.43994 14.5291 10.2621 13.9711 11.6978 12.8188L14.64 15.7633C14.7143 15.8383 14.8028 15.8978 14.9002 15.9385C14.9976 15.9791 15.1021 16 15.2077 16C15.3132 16 15.4177 15.9791 15.5152 15.9385C15.6126 15.8978 15.701 15.8383 15.7753 15.7633C15.9194 15.6141 16 15.4147 16 15.2072C16 14.9997 15.9194 14.8003 15.7753 14.6511ZM7.21243 12.8188C6.10552 12.8188 5.02346 12.4903 4.10309 11.8749C3.18272 11.2595 2.46538 10.3847 2.04178 9.36129C1.61818 8.33786 1.50735 7.2117 1.7233 6.12523C1.93925 5.03875 2.47228 4.04076 3.25499 3.25746C4.0377 2.47416 5.03493 1.94072 6.12058 1.72461C7.20622 1.50849 8.33153 1.61941 9.35419 2.04333C10.3768 2.46725 11.2509 3.18514 11.8659 4.1062C12.4809 5.02727 12.8091 6.11015 12.8091 7.21791C12.8091 8.70337 12.2195 10.128 11.1699 11.1784C10.1203 12.2287 8.69676 12.8188 7.21243 12.8188Z" fill="#70737C"/></symbol></svg>