<svg xmlns="http://www.w3.org/2000/svg" style="display:none"><symbol id="icon-burger-arrow" viewBox="0 0 12 7" fill="none"><path d="M1 1L6 6L11 1" stroke="#98999C" stroke-width="2" stroke-linecap="round" stroke-linejoin="round"/></symbol><symbol id="icon-card-favorite" viewBox="0 0 20 17" fill="none"><path d="M17.6573 1.80092C16.6273 0.782331 15.2619 0.160641 13.8078 0.0481522C12.3538 -0.0643367 10.9068 0.339793 9.72841 1.18754C8.49211 0.280536 6.9533 -0.130744 5.42187 0.0365241C3.89044 0.203792 2.48014 0.937182 1.47497 2.08901C0.469806 3.24083 -0.0555637 4.72554 0.00465958 6.24413C0.0648829 7.76273 0.706226 9.20242 1.79954 10.2733L7.83364 16.2346C8.33893 16.7251 9.01946 17 9.72841 17C10.4374 17 11.1179 16.7251 11.6232 16.2346L17.6573 10.2733C18.7918 9.1474 19.4286 7.62449 19.4286 6.0371C19.4286 4.44971 18.7918 2.9268 17.6573 1.80092ZM16.2872 8.95067L10.2531 14.9024C10.1845 14.9708 10.1027 15.0251 10.0127 15.0621C9.9226 15.0992 9.82599 15.1183 9.72841 15.1183C9.63083 15.1183 9.53422 15.0992 9.44416 15.0621C9.35409 15.0251 9.27237 14.9708 9.20371 14.9024L3.1696 8.92192C2.40757 8.15361 1.98086 7.12151 1.98086 6.04669C1.98086 4.97186 2.40757 3.93977 3.1696 3.17145C3.94612 2.41525 4.99341 1.99123 6.08463 1.99123C7.17584 1.99123 8.22313 2.41525 8.99965 3.17145C9.08998 3.26128 9.19745 3.33258 9.31586 3.38124C9.43427 3.4299 9.56127 3.45495 9.68954 3.45495C9.81782 3.45495 9.94482 3.4299 10.0632 3.38124C10.1816 3.33258 10.2891 3.26128 10.3794 3.17145C11.156 2.41525 12.2032 1.99123 13.2945 1.99123C14.3857 1.99123 15.433 2.41525 16.2095 3.17145C16.982 3.9297 17.4227 4.9562 17.4372 6.03105C17.4518 7.1059 17.039 8.14363 16.2872 8.92192V8.95067Z" fill="#FFCF55"/></symbol><symbol id="icon-cart" viewBox="0 0 24 24" fill="none"><path d="M8.88666 21.3333C9.71509 21.3333 10.3867 20.6618 10.3867 19.8333C10.3867 19.0049 9.71509 18.3333 8.88666 18.3333C8.05823 18.3333 7.38666 19.0049 7.38666 19.8333C7.38666 20.6618 8.05823 21.3333 8.88666 21.3333Z" fill="#359740"/>
<path d="M18 21.3333C18.8284 21.3333 19.5 20.6618 19.5 19.8333C19.5 19.0049 18.8284 18.3333 18 18.3333C17.1716 18.3333 16.5 19.0049 16.5 19.8333C16.5 20.6618 17.1716 21.3333 18 21.3333Z" fill="#359740"/>
<path d="M22.0533 3.58C21.9913 3.50353 21.9131 3.44174 21.8243 3.39909C21.7356 3.35644 21.6385 3.33399 21.54 3.33333H7.66001L8.09335 4.66667H20.6667L18.8867 12.6667H8.88668L5.84001 3.02C5.80706 2.91764 5.74983 2.82477 5.67321 2.74931C5.5966 2.67386 5.50287 2.61806 5.40001 2.58667L2.66668 1.74667C2.58263 1.72084 2.49432 1.71182 2.40679 1.72012C2.31926 1.72843 2.23422 1.75389 2.15653 1.79506C1.99962 1.8782 1.88217 2.02026 1.83001 2.19C1.77785 2.35974 1.79526 2.54325 1.8784 2.70015C1.96154 2.85706 2.10361 2.97451 2.27335 3.02667L4.66668 3.76L7.72668 13.4267L6.63335 14.32L6.54668 14.4067C6.27624 14.7183 6.12295 15.1145 6.11321 15.5271C6.10348 15.9396 6.23791 16.3426 6.49335 16.6667C6.67505 16.8876 6.90595 17.063 7.16757 17.1788C7.42919 17.2945 7.71427 17.3475 8.00001 17.3333H19.1267C19.3035 17.3333 19.4731 17.2631 19.5981 17.1381C19.7231 17.013 19.7933 16.8435 19.7933 16.6667C19.7933 16.4899 19.7231 16.3203 19.5981 16.1953C19.4731 16.0702 19.3035 16 19.1267 16H7.89335C7.81658 15.9974 7.74178 15.975 7.67619 15.935C7.61059 15.8951 7.55641 15.8389 7.51888 15.7718C7.48134 15.7048 7.46173 15.6293 7.46193 15.5524C7.46213 15.4756 7.48213 15.4002 7.52001 15.3333L9.12668 14H19.42C19.5741 14.0038 19.7248 13.954 19.8463 13.8592C19.9679 13.7644 20.0528 13.6304 20.0867 13.48L22.2 4.14667C22.2203 4.04728 22.2176 3.94458 22.1922 3.84638C22.1668 3.74818 22.1193 3.65707 22.0533 3.58Z" fill="#359740"/></symbol><symbol id="icon-category-btn-1" viewBox="0 0 28 28" fill="none"><path d="M23.8161 25.8609C23.9233 25.6945 23.9604 25.4924 23.9193 25.2988C23.8782 25.1052 23.7622 24.9357 23.5966 24.8273C22.7857 24.301 21.8447 23.6848 20.8332 22.9895C21.2271 21.4072 21.4813 19.7934 21.5928 18.1666C21.7549 15.2923 21.2621 12.9818 20.126 11.1682C17.9142 7.66449 13.6997 6.8037 10.3089 6.10949C8.22389 5.6841 6.25731 5.28792 5.4525 4.38654C5.3578 4.28112 5.23517 4.20473 5.09883 4.16622C4.96249 4.1277 4.81803 4.12864 4.6822 4.16893C4.54637 4.20922 4.42474 4.28721 4.33141 4.39385C4.23808 4.50049 4.17688 4.63142 4.1549 4.77144C4.06183 5.22424 2.59795 15.6167 8.09179 21.0774C10.8001 23.7606 14.6994 24.7538 19.6942 24.0216C20.8191 24.8359 21.8627 25.4955 22.783 26.0805C22.9492 26.1877 23.1512 26.2248 23.3447 26.1837C23.5383 26.1426 23.7077 26.0265 23.8161 25.8609V25.8609ZM9.13473 20.0174C5.25315 16.1793 5.34087 9.16343 5.50288 6.28913C6.93943 6.92235 8.4548 7.35884 10.008 7.5868C13.2804 8.25182 16.9829 9.00865 18.8575 11.9677C20.2901 14.2486 20.501 17.5644 19.5051 22.0511C15.5669 19.2161 11.1242 15.3464 9.74544 10.9135C9.6782 10.7343 9.545 10.5876 9.37314 10.5035C9.20129 10.4194 9.00378 10.4043 8.82112 10.4612C8.63845 10.5181 8.48446 10.6428 8.3907 10.8096C8.29694 10.9765 8.27052 11.1729 8.31685 11.3586C9.73211 15.9437 13.9504 19.8008 17.8618 22.7094C14.1402 22.9577 11.2188 22.0572 9.15012 20.0108L9.13473 20.0174Z" fill="#359740"/></symbol><symbol id="icon-category-btn-2" viewBox="0 0 28 28" fill="none"><path d="M7.01163 6.54C6.82788 7.12359 7.28414 8.41478 7.48517 8.63984L7.31002 8.93707L10.8536 21.3102C11.0528 22.0594 11.6301 22.1065 11.8938 22.0363L21.1521 19.575C22.0715 19.4643 22.2297 18.9543 22.1938 18.7132L18.7839 5.88673L18.4051 5.73676C18.5608 5.47256 18.6515 4.11396 18.169 3.5738C17.5659 2.8986 7.2413 5.81051 7.01163 6.54Z" stroke="#359740" stroke-width="1.5"/>
<path d="M4.0383 13.1508C3.95222 13.7723 4.69241 14.8968 4.9525 15.0576L4.82067 15.3978L11.0199 26.4149C11.3787 27.0864 12.0105 26.9647 12.2815 26.8199L21.7951 21.7374C22.7656 21.3627 22.8382 20.8204 22.7532 20.5961L16.611 9.09894L16.1737 9.06284C16.2908 8.76047 16.1276 7.41156 15.5034 7.02572C14.7231 6.54342 4.14591 12.374 4.0383 13.1508Z" fill="white" stroke="#359740" stroke-width="1.5"/></symbol><symbol id="icon-category-btn-3" viewBox="0 0 28 28" fill="none"><path d="M17.9834 19.7684C17.8325 19.7684 17.675 19.7487 17.5044 19.6962C16.3363 19.3747 15.0434 19.7487 14.2297 20.6347C13.8819 21.0087 13.4159 21.2122 12.9172 21.2122C11.9328 21.2122 11.1322 20.4116 11.1322 19.4272C11.1322 19.355 11.1453 19.2631 11.1584 19.1516C11.2963 18.2853 11.0797 17.4125 10.5613 16.7037C10.0494 16.0081 9.26188 15.5291 8.40875 15.3978C7.89688 15.3191 7.50969 14.8662 7.50969 14.3544C7.50969 14.0853 7.60813 13.8425 7.79188 13.6391C8.435 12.9434 8.75 11.9984 8.645 11.0534C8.53344 10.115 8.02813 9.26187 7.24719 8.72374C6.95188 8.52031 6.53844 8.59249 6.335 8.88781C6.125 9.18312 6.19719 9.59656 6.49906 9.79999C6.965 10.1281 7.27344 10.6334 7.33906 11.2044C7.40469 11.7687 7.21438 12.3397 6.82719 12.7597C6.53844 13.0747 6.19719 13.6062 6.19719 14.3675C6.19719 15.5291 7.06344 16.5331 8.21188 16.7103C8.72375 16.7891 9.19625 17.0712 9.50469 17.4912C9.81313 17.9178 9.94438 18.4362 9.85906 18.9612C9.82625 19.1516 9.81969 19.3025 9.81969 19.4337C9.81969 21.1466 11.2109 22.5312 12.9172 22.5312C13.79 22.5312 14.5972 22.1769 15.1944 21.5272C15.6866 20.9956 16.4609 20.7725 17.1631 20.9628C17.4453 21.0416 17.7209 21.0809 17.99 21.0809C18.3509 21.0809 18.6463 20.7856 18.6463 20.4247C18.6397 20.0637 18.3444 19.7684 17.9834 19.7684Z" fill="#359740"/>
<path d="M21.7241 21.3894C22.5444 20.4903 23.0497 19.2959 23.0497 17.9834C23.0497 17.3075 22.7675 16.5594 22.5312 15.9688C23.6469 15.0369 24.5 13.7506 24.5 12.1887C24.5 9.38656 22.2294 7.1225 19.4338 7.1225C18.8694 7.1225 18.4494 7.26688 17.9375 7.4375C17.4256 5.61313 15.6275 4.22188 13.6391 4.22188C12.7072 4.22188 12.0838 4.31375 11.375 4.8125C10.5809 3.88719 9.16344 3.5 7.84437 3.5C5.4425 3.5 3.5 5.4425 3.5 7.84437C3.5 9.3275 4.33344 10.5941 5.46875 11.375C4.75344 12.1494 4.22188 13.2256 4.22188 14.3609C4.22188 16.5331 6.00687 18.2722 8.09375 18.5938C8.05438 18.8497 7.84437 19.1647 7.84437 19.4338C7.84437 22.2359 10.115 24.5 12.9106 24.5C14.3806 24.5 15.6931 23.5353 16.625 22.5312C16.9859 22.8003 17.5175 23.0497 17.9834 23.0497C18.9941 23.0497 19.9325 22.7478 20.72 22.2425C21.2056 22.9316 21.6256 23.5812 21.9603 24.1653C22.085 24.3819 22.3016 24.5 22.5312 24.5C22.6428 24.5 22.7544 24.4738 22.8594 24.4147C23.1744 24.2375 23.2859 23.8372 23.1022 23.5222C22.7281 22.8725 22.2622 22.1506 21.7241 21.3894ZM17.4059 21.4812C17.1763 21.3041 16.9006 21.2188 16.625 21.2188C16.2706 21.2188 15.9163 21.3631 15.6603 21.6387C15.1288 22.2162 14.0591 23.1875 12.9106 23.1875C10.8697 23.1875 9.20937 21.5534 9.15687 19.5322C9.17 19.4994 9.18313 19.4731 9.19625 19.4403C9.26844 19.2697 9.35375 19.0531 9.39312 18.7906C9.44562 18.4494 9.36031 18.095 9.15687 17.8128C8.94687 17.5372 8.63844 17.3469 8.29063 17.2944C6.93875 17.0909 5.53437 15.9359 5.53437 14.3609C5.53437 13.6587 5.86906 12.8713 6.43344 12.2609C6.68937 11.9788 6.81406 11.6047 6.77469 11.2241C6.73531 10.8434 6.53187 10.5022 6.21687 10.2922C5.32437 9.68188 4.8125 8.78281 4.8125 7.84437C4.8125 6.17094 6.17094 4.8125 7.84437 4.8125C8.95344 4.8125 9.92469 5.14062 10.3775 5.66562C10.64 5.9675 11.0075 6.125 11.375 6.125C11.6375 6.125 11.9 6.04625 12.1297 5.88219C12.5234 5.60656 12.8319 5.53437 13.6391 5.53437C15.0041 5.53437 16.31 6.50562 16.6775 7.79187C16.7759 8.13969 17.0122 8.42844 17.3272 8.59906C17.5175 8.6975 17.7275 8.75 17.9375 8.75C18.0753 8.75 18.2197 8.73031 18.3575 8.68438L18.3903 8.67125C18.8628 8.51375 19.1056 8.435 19.4272 8.435C21.5009 8.435 23.1809 10.1216 23.1809 12.1887C23.1809 13.4422 22.3672 14.3872 21.6847 14.9581C21.245 15.3256 21.0941 15.9294 21.3106 16.4609C21.4484 16.8022 21.7372 17.5044 21.7372 17.9834C21.7372 18.8562 21.4353 19.6634 20.93 20.3C20.0572 19.1319 19.0531 17.8981 17.99 16.6644L20.4903 11.6703C20.6544 11.3487 20.5231 10.955 20.195 10.7909C19.8734 10.6269 19.4797 10.7581 19.3156 11.0863L17.0581 15.5947C16.0475 14.4528 15.0041 13.3306 13.9869 12.2872L14.6431 8.19875C14.7022 7.83781 14.4594 7.50313 14.0984 7.44406C13.7441 7.385 13.4028 7.62781 13.3438 7.98875L12.8384 11.1322C12.1034 10.3906 11.3816 9.71469 10.7188 9.12406V7.4375C10.7188 7.07656 10.4234 6.78125 10.0625 6.78125C9.70156 6.78125 9.40625 7.07656 9.40625 7.4375V8.00188C8.73688 7.47031 8.16594 7.07 7.73281 6.85344C7.40469 6.68938 7.01094 6.82063 6.85344 7.14219C6.68938 7.47031 6.82063 7.86406 7.14219 8.02156C7.71969 8.31031 8.57281 8.96 9.58344 9.8525C9.60313 9.86563 9.61625 9.87875 9.62938 9.89187C10.6859 10.8237 11.9197 12.0181 13.1994 13.3438H9.40625C9.04531 13.3438 8.75 13.6391 8.75 14C8.75 14.3609 9.04531 14.6562 9.40625 14.6562H14.3609C14.3872 14.6562 14.4069 14.6431 14.4331 14.6431C15.0959 15.3584 15.7653 16.1 16.415 16.8416L12.5103 17.9638C12.1625 18.0622 11.9591 18.4297 12.0641 18.7775C12.1428 19.0597 12.3988 19.25 12.6875 19.25C12.7466 19.25 12.8056 19.2434 12.8712 19.2237L17.3534 17.9375C18.2919 19.0466 19.1712 20.1425 19.9456 21.1794C19.3747 21.5338 18.6987 21.7437 17.9769 21.7437C17.9047 21.7372 17.6553 21.6584 17.4059 21.4812Z" fill="#359740"/></symbol><symbol id="icon-category-btn-4" viewBox="0 0 32 32" fill="none"><path d="M18.9328 5.80646C18.7487 5.63845 18.4927 5.55844 18.2367 5.61445L17.9967 5.66245C17.6047 5.62245 17.2046 5.59844 16.7966 5.59844C15.5565 5.59844 14.3564 5.80646 13.2444 6.18249L12.7083 4.55037C12.6123 4.25435 12.3483 4.03834 12.0363 4.00633C11.7243 3.96633 11.4202 4.11834 11.2602 4.39036L9.81212 6.86253C8.82806 6.11048 7.61997 5.59844 6.39589 5.59844C5.95586 5.59844 5.59583 5.95847 5.59583 6.3985C5.59583 6.83853 5.95586 7.19856 6.39589 7.19856C7.32395 7.19856 8.25202 7.64659 8.98807 8.24663L4.35575 11.3348C4.05973 11.5269 3.93172 11.8949 4.03572 12.2309C4.13173 12.5669 4.44375 12.7989 4.79578 12.7989H6.34788C5.86785 14.039 5.59583 15.3911 5.59583 16.7992C5.59583 16.9992 5.61183 17.1912 5.62783 17.3913C5.57983 17.5593 5.59583 17.7353 5.65184 17.8873C6.19587 23.5597 10.9802 28 16.7966 28C22.981 28 27.9974 22.9837 27.9974 16.7992C27.9974 11.3428 24.1011 6.80653 18.9328 5.80646ZM16.7966 26.3999C11.8683 26.3999 7.79598 22.6636 7.25995 17.8793L8.02 17.1432C8.10001 19.2794 8.94806 21.3995 10.5802 23.0237C12.2923 24.7358 14.5485 25.5998 16.8046 25.5998C19.0608 25.5998 21.3089 24.7438 23.029 23.0237C23.3411 22.7116 23.3411 22.2076 23.029 21.8956C22.717 21.5836 22.213 21.5836 21.901 21.8956C19.0928 24.7038 14.5245 24.7038 11.7163 21.8956C9.98014 20.1595 9.31609 17.7433 9.73212 15.4871L10.0841 15.1431L12.9723 18.8874C13.1164 19.0874 13.3564 19.1994 13.5964 19.1994C13.6844 19.1994 13.7724 19.1834 13.8524 19.1594C14.1804 19.0474 14.3964 18.7434 14.3964 18.3993V12.7029L20.0928 11.9909C20.4529 11.9429 20.7409 11.6629 20.7889 11.3028C20.8369 10.9428 20.6369 10.5988 20.3008 10.4548L16.9246 9.07069L18.5727 7.36657C23.021 8.20663 26.3973 12.1109 26.3973 16.7992C26.3973 22.0956 22.093 26.3999 16.7966 26.3999ZM10.0361 9.46271C10.0521 9.45471 10.0521 9.44671 10.0601 9.43871C10.2762 9.78274 10.3962 10.1188 10.3962 10.3988C10.3962 10.8388 10.7562 11.1988 11.1962 11.1988C11.6363 11.1988 11.9963 10.8388 11.9963 10.3988C11.9963 9.63872 11.6122 8.78267 10.9882 8.00661L11.7323 6.73452L12.0763 7.7906C12.2043 8.17462 12.5963 8.40664 12.9963 8.32663L16.0126 7.70259L14.9405 8.81467C14.7565 9.00668 14.6765 9.2787 14.7325 9.53472C14.7885 9.79074 14.9645 10.0068 15.2125 10.1108L16.8606 10.7828L13.4924 11.2068C13.1004 11.2548 12.7963 11.5989 12.7963 11.9989V16.0472L10.7962 13.447C10.6602 13.263 10.4442 13.151 10.2202 13.135C10.2042 13.135 10.1801 13.135 10.1641 13.135C9.95613 13.135 9.75612 13.215 9.60411 13.359L7.988 14.9271L8.76405 12.2069C8.83606 11.9749 8.78805 11.7189 8.63604 11.5189C8.48403 11.3188 8.24402 11.1988 7.996 11.1988H7.43596L10.0361 9.46271Z" fill="#359740"/></symbol><symbol id="icon-category-btn-5" viewBox="0 0 28 28" fill="none"><g clip-path="url(#clip0_23_2698)">
<path d="M22.3868 9.17495C21.1399 7.27189 19.1876 6.07213 17.0929 5.73427C17.1143 5.58947 17.0929 5.43088 17.0145 5.29297C16.8649 5.03096 16.5585 4.88616 16.245 4.94822L11.9201 5.81011L11.3216 4.03116C11.2361 3.77604 11.001 3.58987 10.7231 3.56229C10.4453 3.53471 10.1745 3.66572 10.032 3.90015L8.74238 6.03076C7.866 5.38261 6.79013 4.94132 5.7 4.94132C5.30813 4.94132 4.9875 5.2516 4.9875 5.63084C4.9875 6.01007 5.30813 6.32035 5.7 6.32035C6.5265 6.32035 7.353 6.70648 8.0085 7.22362L3.88313 9.88515C3.6195 10.0506 3.5055 10.3678 3.59813 10.6574C3.68363 10.947 3.9615 11.147 4.275 11.147H6.17738L5.00888 15.0979C4.92338 15.4013 5.05163 15.7185 5.3295 15.877C5.4435 15.946 5.57175 15.9667 5.7 15.9667C5.71425 18.2214 6.74738 20.4072 8.64975 21.8138C11.4641 23.8892 15.561 24.9442 20.8335 24.9442C21.033 24.9442 21.2325 24.9442 21.432 24.9373C23.085 24.9097 24.4886 23.6893 24.6953 22.0965C25.3721 16.8906 24.5955 12.5467 22.3868 9.17495ZM23.2845 21.9241C23.1634 22.8412 22.3654 23.5445 21.4178 23.5583C16.1809 23.6341 12.1766 22.6826 9.519 20.7175C7.65225 19.3384 6.81863 17.0285 7.23188 14.8083L8.25788 13.8499C7.31738 16.1253 7.99425 18.7247 9.95363 20.1727C12.3833 21.9655 16.0455 22.8756 20.8335 22.8756C21.0259 22.8756 21.2183 22.8756 21.4178 22.8687C21.8096 22.8618 22.1231 22.5447 22.116 22.1654C22.1089 21.7862 21.7883 21.4897 21.4035 21.4897C21.3964 21.4897 21.3964 21.4897 21.3893 21.4897C16.6511 21.5725 13.0886 20.745 10.8229 19.0764C9.29813 17.9525 8.82788 15.8495 9.71138 14.0843L11.5568 16.4011C11.685 16.5666 11.8988 16.6631 12.1125 16.6631C12.1909 16.6631 12.2693 16.6493 12.3405 16.6286C12.6326 16.5321 12.825 16.2701 12.825 15.9736V11.0642L17.898 10.4506C18.2186 10.4092 18.4751 10.1679 18.5179 9.85757C18.5606 9.54729 18.3825 9.2508 18.0833 9.12668L15.0765 7.93382L15.9885 7.01677C18.0191 7.05124 19.9928 8.08552 21.1826 9.90584C23.2061 13.0087 23.9186 17.0492 23.2845 21.9241ZM8.94188 8.27168C8.95613 8.26479 8.95613 8.25789 8.96325 8.251C9.15563 8.54749 9.2625 8.83709 9.2625 9.07842C9.2625 9.45765 9.58313 9.76793 9.975 9.76793C10.3669 9.76793 10.6875 9.45765 10.6875 9.07842C10.6875 8.42338 10.3455 7.6856 9.78975 7.01677L10.4524 5.92043L10.7588 6.8306C10.8728 7.16846 11.229 7.36152 11.5781 7.29257L14.2643 6.75475L13.3095 7.71318C13.1456 7.87866 13.0744 8.1131 13.1243 8.33374C13.1741 8.55439 13.3309 8.74056 13.5518 8.83019L15.0195 9.40939L12.0199 9.77483C11.6708 9.8162 11.4 10.1127 11.4 10.4575V13.9464L9.61875 11.7055C9.49763 11.5469 9.30525 11.4504 9.10575 11.4366C9.0915 11.4366 9.07013 11.4366 9.05588 11.4366C8.87063 11.4366 8.6925 11.5055 8.55713 11.6296L7.11788 12.9811L7.809 10.6367C7.87313 10.4368 7.83038 10.2161 7.695 10.0437C7.55963 9.87136 7.34588 9.76793 7.125 9.76793H6.62625L8.94188 8.27168Z" fill="#359740"/>
<path d="M15.1691 13.7053C15.3116 13.8363 15.4897 13.9052 15.675 13.9052C15.8602 13.9052 16.0384 13.8363 16.1809 13.7053C16.4587 13.4364 16.4587 13.002 16.1809 12.7331L15.4684 12.0435C15.1905 11.7746 14.7416 11.7746 14.4637 12.0435C14.1859 12.3125 14.1859 12.7468 14.4637 13.0158L15.1691 13.7053Z" fill="#359740"/>
<path d="M19.4441 13.0158C19.5866 13.1468 19.7647 13.2157 19.95 13.2157C20.1352 13.2157 20.3134 13.1468 20.4559 13.0158C20.7337 12.7468 20.7337 12.3125 20.4559 12.0435L19.7434 11.354C19.4655 11.0851 19.0166 11.0851 18.7387 11.354C18.4609 11.6229 18.4609 12.0573 18.7387 12.3262L19.4441 13.0158Z" fill="#359740"/>
<path d="M16.1809 17.5528L15.4684 16.8632C15.1905 16.5943 14.7416 16.5943 14.4637 16.8632C14.1859 17.1322 14.1859 17.5665 14.4637 17.8355L15.1762 18.525C15.3116 18.6629 15.4897 18.7318 15.675 18.7318C15.8602 18.7318 16.0384 18.6629 16.1809 18.5319C16.4587 18.263 16.4587 17.8217 16.1809 17.5528Z" fill="#359740"/>
<path d="M18.0191 16.4633C18.1616 16.5943 18.3397 16.6633 18.525 16.6633C18.7102 16.6633 18.8884 16.5943 19.0309 16.4633C19.3087 16.1944 19.3087 15.76 19.0309 15.4911L18.3184 14.8016C18.0405 14.5327 17.5916 14.5327 17.3137 14.8016C17.0359 15.0705 17.0359 15.5049 17.3137 15.7738L18.0191 16.4633Z" fill="#359740"/>
<path d="M20.8691 16.4633L21.5816 17.1528C21.7241 17.2839 21.9023 17.3528 22.0875 17.3528C22.2728 17.3528 22.4509 17.2839 22.5934 17.1528C22.8713 16.8839 22.8713 16.4495 22.5934 16.1806L21.8809 15.4911C21.603 15.2222 21.1541 15.2222 20.8763 15.4911C20.5913 15.7531 20.5913 16.1944 20.8691 16.4633Z" fill="#359740"/>
<path d="M19.7434 18.2423C19.4655 17.9734 19.0166 17.9734 18.7387 18.2423C18.4609 18.5112 18.4609 18.9456 18.7387 19.2145L19.4512 19.904C19.5866 20.0419 19.7647 20.1109 19.95 20.1109C20.1352 20.1109 20.3134 20.0419 20.4559 19.9109C20.7337 19.642 20.7337 19.2076 20.4559 18.9387L19.7434 18.2423Z" fill="#359740"/>
</g>
<defs>
<clipPath id="clip0_23_2698">
<rect width="21.375" height="21.375" fill="white" transform="translate(3.5625 3.5625)"/>
</clipPath>
</defs></symbol><symbol id="icon-category-btn-6" viewBox="0 0 24 24" fill="none"><path d="M10.2524 4.62435L8.72845 3.21496C8.42006 2.92835 7.93686 2.92835 7.62846 3.21496L6.10409 4.62435C5.40473 5.27432 5 6.18283 5 7.13386V13.1289C5 13.6037 5.39964 14.0115 5.87786 14.0115H7.66477V15.5827C7.26705 15.7732 6.94886 16.1883 6.94886 16.6701V19.8146C6.94886 20.4765 7.50691 21 8.1737 21H8.17577C8.8426 21 9.375 20.4765 9.375 19.8146V16.6701C9.375 16.1883 9.09659 15.7732 8.69886 15.5827V14.0018V11.4885C8.69886 11.2968 8.84121 11.1687 9.03439 11.1687H9.03494C9.22808 11.1687 9.375 11.2968 9.375 11.4885V14.0115H10.4678C10.9461 14.0115 11.3636 13.6037 11.3636 13.1289V7.13386C11.3636 6.18283 10.9518 5.27432 10.2524 4.62435ZM18.4917 3.42998H18.4507C18.1565 3.42998 17.9261 3.64714 17.9261 3.93924V6.70582C17.9261 7.11029 17.5836 7.45727 17.1762 7.45727H17.1742C16.7667 7.45727 16.4148 7.11029 16.4148 6.70582V3.93924C16.4148 3.64714 16.2 3.42998 15.9057 3.42998H15.9037C15.6094 3.42998 15.3807 3.64714 15.3807 3.93924V6.70582C15.3807 7.11029 15.0426 7.45727 14.6352 7.45727H14.6332C14.2258 7.45727 13.9091 7.11029 13.9091 6.70582V3.93924C13.9091 3.64714 13.659 3.42998 13.3647 3.42998H13.3627C13.0685 3.42998 12.8352 3.64714 12.8352 3.93924V13.0868C12.8352 13.5848 13.2427 14.0115 13.7443 14.0115H15.4205V15.5827C14.983 15.7732 14.7045 16.1883 14.7045 16.6701V19.8146C14.7045 20.4765 15.2585 21 15.9254 21H15.9246C16.5914 21 17.1307 20.4765 17.1307 19.8146V16.6701C17.1307 16.1883 16.8523 15.7732 16.4148 15.5827V11.4402C16.4943 11.2714 16.5943 11.1413 16.7709 11.1413C16.964 11.1413 17.1307 11.2968 17.1307 11.4885V14.0115H18.1162C18.6179 14.0115 19 13.5848 19 13.0868V3.93924C19 3.64714 18.786 3.42998 18.4917 3.42998Z" fill="#359740"/></symbol><symbol id="icon-category-btn-7" viewBox="0 0 32 32" fill="none"><path d="M9.0071 12.2447C8.42376 12.5924 7.81332 12.8007 7.16384 12.8703C6.72626 12.9195 6.31006 12.8688 5.96197 12.7339C5.3913 12.5075 4.96788 12.1 4.70726 11.527C4.64712 11.3948 4.64297 11.2417 4.70207 11.1006C4.94404 10.5144 5.3524 10.1029 5.92169 9.85693C6.26326 9.70936 6.68344 9.65188 7.11987 9.68432C8.02204 9.75663 8.84824 10.0983 9.64342 10.7013L10.0745 10.6934C10.1645 10.3222 10.3599 9.98166 10.634 9.69999L10.4095 9.32335C9.4742 8.96574 8.74942 8.43909 8.22055 7.7085C7.9593 7.35376 7.79442 6.9727 7.74047 6.60022C7.64962 5.98828 7.79248 5.42378 8.15987 4.91221C8.24458 4.79324 8.37778 4.71384 8.52273 4.69592C9.14748 4.61611 9.71197 4.75897 10.207 5.12998C10.509 5.35461 10.7658 5.68091 10.9535 6.07946C11.34 6.89492 11.4585 7.78298 11.3281 8.77578L11.5526 9.15242C11.928 9.04071 12.3233 9.03543 12.6926 9.13279L12.9046 8.75741C12.7497 7.76654 12.8422 6.87726 13.2059 6.05663C13.3822 5.65272 13.6308 5.31779 13.9277 5.0848C14.4102 4.70378 14.971 4.53759 15.6018 4.6036C15.7466 4.61686 15.8794 4.69336 15.9744 4.81102C16.359 5.3101 16.5161 5.87638 16.4391 6.48875C16.3922 6.8591 16.2388 7.24933 15.9874 7.61084C15.6172 8.149 15.1436 8.5869 14.5603 8.93461C14.3352 9.06876 14.0919 9.18269 13.8385 9.29017L13.6265 9.66555C13.7609 9.79708 13.8889 9.93868 13.9902 10.1086C14.0915 10.2786 14.1551 10.4585 14.2069 10.6393L14.6453 10.6332C15.4211 10.0027 16.2383 9.6401 17.1401 9.54458C17.5776 9.49541 17.9938 9.54613 18.3419 9.68103C18.9126 9.90736 19.336 10.3148 19.5966 10.8878C19.6568 11.0201 19.6563 11.176 19.6018 11.3143C19.4023 11.7943 19.0913 12.1602 18.6733 12.4093C18.5815 12.4641 18.4869 12.5142 18.3868 12.5552C18.0452 12.7028 17.6296 12.7575 17.1886 12.7278C16.2864 12.6555 15.4602 12.3138 14.6697 11.7081L14.2386 11.716C14.1504 12.0798 13.955 12.4204 13.6855 12.6994C13.7649 12.8326 13.8489 12.963 13.9283 13.0962C14.8471 13.4575 15.5618 13.9777 16.0898 14.6963C16.351 15.0511 16.5159 15.4321 16.5699 15.8046C16.6266 16.1817 16.5833 16.5374 16.4622 16.8773C16.8577 17.4259 17.256 17.9479 17.6453 18.4443C17.6904 18.0501 17.8062 17.6698 18.0044 17.3026C18.4304 16.5134 19.1528 15.9395 20.0863 15.657C20.8132 15.4354 21.5727 15.3936 22.3289 15.5342C22.5186 15.5705 22.6796 15.7049 22.7414 15.8922C22.8032 16.0794 22.7559 16.282 22.6225 16.4237C22.249 16.8206 21.7747 17.5391 21.669 18.2496C21.5043 19.3624 20.8908 20.0145 20.2064 20.4224C19.9997 20.5456 19.7931 20.6377 19.5838 20.7251C21.2714 22.5329 22.8233 23.7369 24.125 24.2185C24.4035 24.3201 24.5438 24.6287 24.4421 24.9072C24.3959 25.0281 24.3141 25.1205 24.213 25.1807C24.0798 25.2601 23.911 25.2798 23.7534 25.2243C22.8163 24.874 21.8543 24.2522 20.9092 23.4709L20.8311 23.5175C20.4478 23.8456 20.0148 24.1846 19.5372 24.4693C18.6369 25.0059 17.5647 25.3586 16.3256 25.1075C15.4421 24.9307 14.2556 25.1647 13.5093 25.4166C13.3037 25.4894 13.0783 25.4245 12.9394 25.2646C12.8004 25.1046 12.7663 24.8697 12.8622 24.6756C13.2727 23.8395 13.8637 23.0764 14.6203 22.4137C15.5682 21.581 16.6482 21.0742 17.7417 20.9454C17.9343 20.9239 18.1205 20.9125 18.3076 20.9131C18.2893 20.8928 18.2683 20.868 18.25 20.8478C17.3368 19.8171 16.4917 18.7335 15.7472 17.7143C15.1363 17.7859 14.5837 17.6421 14.106 17.2794C13.8041 17.0548 13.5473 16.7285 13.3596 16.33C12.9731 15.5145 12.8546 14.6264 12.9804 13.6364L12.7558 13.2597C12.3804 13.3714 11.9852 13.3767 11.6159 13.2794L11.4039 13.6547C11.5587 14.6456 11.4663 15.5349 11.1026 16.3555C10.9263 16.7594 10.6777 17.0944 10.3808 17.3274C10.2972 17.3959 10.208 17.4552 10.1162 17.51C9.6982 17.7591 9.22378 17.8614 8.71131 17.8058C8.56371 17.788 8.4337 17.7161 8.33867 17.5984C7.95403 17.0993 7.79702 16.533 7.87399 15.9207C7.92091 15.5503 8.07427 15.1601 8.32567 14.7986C8.84138 14.0554 9.54909 13.5091 10.47 13.122L10.6839 12.7393C10.5495 12.6077 10.4215 12.4661 10.3202 12.2962C10.2189 12.1262 10.1552 11.9463 10.1035 11.7655L9.67242 11.7734C9.44814 11.9507 9.23217 12.1106 9.0071 12.2447ZM7.03333 10.7506C6.76561 10.7297 6.52801 10.7592 6.33978 10.8403C6.10473 10.9368 5.93098 11.084 5.80015 11.2927C5.93528 11.4985 6.11829 11.6384 6.35553 11.7336C6.54331 11.8084 6.78259 11.8338 7.05137 11.8044C7.59627 11.7472 8.0911 11.5644 8.57436 11.2576C8.07727 10.9563 7.5761 10.7944 7.03333 10.7506ZM15.0987 7.00759C15.2525 6.78519 15.3439 6.56261 15.3674 6.36184C15.3993 6.1125 15.356 5.88311 15.2438 5.66361C14.998 5.6794 14.7859 5.76224 14.5892 5.92307C14.4329 6.04734 14.2893 6.24501 14.1804 6.49047C13.9607 6.98871 13.8647 7.50657 13.8906 8.08256C14.3976 7.80524 14.7911 7.45239 15.0987 7.00759ZM17.2632 11.6624C17.5309 11.6834 17.7686 11.6538 17.9568 11.5727C18.1891 11.4716 18.3674 11.3217 18.4964 11.1203C18.3613 10.9145 18.1783 10.7746 17.9438 10.6841C17.756 10.6092 17.5167 10.5838 17.2479 10.6133C16.703 10.6704 16.2128 10.8505 15.7249 11.16C16.2193 11.4567 16.7205 11.6187 17.2632 11.6624ZM20.6121 18.0952C20.6953 17.5351 20.9307 16.9901 21.2108 16.5306C20.9366 16.5509 20.6668 16.5996 20.3924 16.6823C19.9353 16.824 19.3034 17.1322 18.9365 17.8116C18.7217 18.2135 18.5043 18.8411 18.9233 19.8364C19.9991 19.469 20.4802 18.9706 20.6121 18.0952ZM9.19787 15.4054C9.04408 15.6278 8.95265 15.8504 8.92914 16.0512C8.89998 16.3051 8.936 16.5327 9.05276 16.7494C9.29858 16.7336 9.51066 16.6508 9.70737 16.49C9.86363 16.3657 10.0073 16.168 10.1162 15.9226C10.3359 15.4243 10.4318 14.9065 10.406 14.3305C9.89898 14.6078 9.50546 14.9606 9.19787 15.4054ZM9.56351 5.9929C9.36036 5.84008 9.146 5.76243 8.89841 5.75437C8.79232 5.97324 8.75865 6.19874 8.79185 6.45286C8.82337 6.65196 8.92361 6.87234 9.07887 7.09105C9.40407 7.53218 9.80108 7.87447 10.312 8.1364C10.322 7.55776 10.2143 7.04298 9.97914 6.55442C9.86981 6.30834 9.72364 6.11533 9.56351 5.9929ZM17.8633 22.0058C16.9863 22.1115 16.1038 22.5317 15.3177 23.2181C15.0116 23.4878 14.7375 23.7695 14.4963 24.0751C15.1716 23.9651 15.9007 23.9351 16.5359 24.0608C17.6678 24.2887 18.73 23.8984 20.0749 22.7605C19.5027 22.1243 18.8045 21.893 17.8633 22.0058ZM14.7331 16.4201C14.9362 16.573 15.1506 16.6506 15.3981 16.6587C15.5042 16.4398 15.5425 16.2116 15.5047 15.9602C15.4732 15.7611 15.373 15.5407 15.2177 15.322C14.8925 14.8809 14.4955 14.5386 13.9845 14.2766C13.9746 14.8553 14.0822 15.3701 14.3174 15.8586C14.4268 16.1047 14.5729 16.2977 14.7331 16.4201ZM12.6959 12.1252C13.2011 11.824 13.3681 11.1642 13.0669 10.6589C12.7658 10.1537 12.106 9.98671 11.6007 10.2879C11.0954 10.589 10.9285 11.2488 11.2296 11.7541C11.5308 12.2593 12.1906 12.4263 12.6959 12.1252Z" fill="#359740"/></symbol><symbol id="icon-clock" viewBox="0 0 24 24" fill="none"><path d="M12 3C7.05 3 3 7.05 3 12C3 16.95 7.05 21 12 21C16.95 21 21 16.95 21 12C21 7.05 16.95 3 12 3ZM14.7 12.9H12C11.46 12.9 11.1 12.54 11.1 12V7.5C11.1 6.96 11.46 6.6 12 6.6C12.54 6.6 12.9 6.96 12.9 7.5V11.1H14.7C15.24 11.1 15.6 11.46 15.6 12C15.6 12.54 15.24 12.9 14.7 12.9Z" fill="#70737C"/></symbol><symbol id="icon-facebook" viewBox="0 0 20 20" fill="none"><path fill-rule="evenodd" clip-rule="evenodd" d="M0 10.0558C0 15.0275 3.61083 19.1617 8.33333 20V12.7775H5.83333V10H8.33333V7.7775C8.33333 5.2775 9.94417 3.88917 12.2225 3.88917C12.9442 3.88917 13.7225 4 14.4442 4.11083V6.66667H13.1667C11.9442 6.66667 11.6667 7.2775 11.6667 8.05583V10H14.3333L13.8892 12.7775H11.6667V20C16.3892 19.1617 20 15.0283 20 10.0558C20 4.525 15.5 0 10 0C4.5 0 0 4.525 0 10.0558Z" fill="#70737C"/></symbol><symbol id="icon-favorite" viewBox="0 0 24 24" fill="none"><path d="M19.6573 5.80092C18.6273 4.78233 17.2619 4.16064 15.8078 4.04815C14.3538 3.93566 12.9068 4.33979 11.7284 5.18754C10.4921 4.28054 8.9533 3.86926 7.42187 4.03652C5.89044 4.20379 4.48014 4.93718 3.47497 6.08901C2.46981 7.24083 1.94444 8.72554 2.00466 10.2441C2.06488 11.7627 2.70623 13.2024 3.79954 14.2733L9.83364 20.2346C10.3389 20.7251 11.0195 21 11.7284 21C12.4374 21 13.1179 20.7251 13.6232 20.2346L19.6573 14.2733C20.7918 13.1474 21.4286 11.6245 21.4286 10.0371C21.4286 8.44971 20.7918 6.9268 19.6573 5.80092ZM18.2872 12.9507L12.2531 18.9024C12.1845 18.9708 12.1027 19.0251 12.0127 19.0621C11.9226 19.0992 11.826 19.1183 11.7284 19.1183C11.6308 19.1183 11.5342 19.0992 11.4442 19.0621C11.3541 19.0251 11.2724 18.9708 11.2037 18.9024L5.1696 12.9219C4.40757 12.1536 3.98086 11.1215 3.98086 10.0467C3.98086 8.97186 4.40757 7.93977 5.1696 7.17145C5.94612 6.41525 6.99341 5.99123 8.08463 5.99123C9.17584 5.99123 10.2231 6.41525 10.9997 7.17145C11.09 7.26128 11.1975 7.33258 11.3159 7.38124C11.4343 7.4299 11.5613 7.45495 11.6895 7.45495C11.8178 7.45495 11.9448 7.4299 12.0632 7.38124C12.1816 7.33258 12.2891 7.26128 12.3794 7.17145C13.156 6.41525 14.2032 5.99123 15.2945 5.99123C16.3857 5.99123 17.433 6.41525 18.2095 7.17145C18.982 7.9297 19.4227 8.9562 19.4372 10.0311C19.4518 11.1059 19.039 12.1436 18.2872 12.9219V12.9507Z" fill="#359740"/></symbol><symbol id="icon-fire" viewBox="0 0 46 46" fill="none"><path d="M36.2651 21.7765C35.4967 20.047 34.3797 18.4947 32.9838 17.2167L31.832 16.1599C31.7929 16.125 31.7459 16.1002 31.6949 16.0877C31.644 16.0753 31.5908 16.0755 31.54 16.0884C31.4892 16.1013 31.4424 16.1265 31.4036 16.1617C31.3648 16.1969 31.3352 16.2411 31.3175 16.2905L30.8029 17.7669C30.4823 18.6931 29.8925 19.6391 29.0574 20.5692C29.002 20.6286 28.9386 20.6444 28.8951 20.6484C28.8516 20.6523 28.7843 20.6444 28.7249 20.589C28.6695 20.5415 28.6418 20.4703 28.6457 20.399C28.7922 18.0162 28.0797 15.3286 26.5202 12.4036C25.2299 9.97329 23.4368 8.07734 21.1965 6.75532L19.5618 5.79349C19.3481 5.66683 19.075 5.83307 19.0868 6.08244L19.1739 7.98234C19.2333 9.28061 19.0829 10.4285 18.7266 11.3824C18.2912 12.55 17.6659 13.6346 16.8663 14.6083C16.3099 15.285 15.6792 15.897 14.9862 16.433C13.3171 17.7161 11.9599 19.3601 11.0162 21.2421C10.0748 23.1405 9.58449 25.2306 9.58334 27.3495C9.58334 29.2177 9.95145 31.0266 10.6797 32.7326C11.383 34.3751 12.3978 35.8657 13.6681 37.1221C14.9506 38.3888 16.4388 39.3862 18.0973 40.0789C19.8151 40.7993 21.6359 41.1634 23.516 41.1634C25.3961 41.1634 27.2168 40.7993 28.9347 40.0828C30.5891 39.3942 32.0934 38.3899 33.3638 37.1261C34.6463 35.8595 35.6516 34.3792 36.3522 32.7365C37.0794 31.0352 37.4525 29.2037 37.4486 27.3535C37.4486 25.4219 37.0528 23.5457 36.2651 21.7765V21.7765Z" fill="#E55C5C"/></symbol><symbol id="icon-half-star" viewBox="0 0 14 13" fill="none"><path d="M13.3333 5.09397C13.4 4.76064 13.1333 4.36064 12.8 4.36064L9 3.8273L7.26667 0.360636C7.2 0.227303 7.13333 0.160636 7 0.0939693C6.66667 -0.106031 6.26667 0.0273027 6.06667 0.360636L4.4 3.8273L0.6 4.36064C0.4 4.36064 0.266667 4.4273 0.2 4.56064C-0.0666667 4.8273 -0.0666667 5.2273 0.2 5.49397L2.93333 8.16064L2.26667 11.9606C2.26667 12.094 2.26667 12.2273 2.33333 12.3606C2.53333 12.694 2.93333 12.8273 3.26667 12.6273L6.66667 10.8273L10.0667 12.6273C10.1333 12.694 10.2667 12.694 10.4 12.694C10.4667 12.694 10.4667 12.694 10.5333 12.694C10.8667 12.6273 11.1333 12.294 11.0667 11.894L10.4 8.09397L13.1333 5.4273C13.2667 5.36064 13.3333 5.2273 13.3333 5.09397ZM9.2 7.4273C9.06667 7.56064 9 7.8273 9 8.0273L9.46667 10.8273L6.93333 9.49397C6.86667 9.4273 6.73333 9.4273 6.6 9.4273V2.16064L7.86667 4.69397C7.93333 4.89397 8.13333 5.0273 8.4 5.0273L11.2 5.4273L9.2 7.4273Z" fill="#FFCF55"/></symbol><symbol id="icon-instagram" viewBox="0 0 19 19" fill="none"><path d="M9.36632 6.24445C7.64601 6.24445 6.2421 7.64835 6.2421 9.36867C6.2421 11.089 7.64601 12.4929 9.36632 12.4929C11.0866 12.4929 12.4905 11.089 12.4905 9.36867C12.4905 7.64835 11.0866 6.24445 9.36632 6.24445ZM18.7366 9.36867C18.7366 8.07492 18.7484 6.79288 18.6757 5.50148C18.603 4.00148 18.2609 2.67023 17.164 1.57335C16.0648 0.474134 14.7359 0.134291 13.2359 0.0616346C11.9421 -0.0110216 10.6601 0.000697135 9.36866 0.000697135C8.07491 0.000697135 6.79288 -0.0110216 5.50148 0.0616346C4.00148 0.134291 2.67023 0.476478 1.57335 1.57335C0.474135 2.67257 0.134291 4.00148 0.0616346 5.50148C-0.0110216 6.79523 0.000697135 8.07726 0.000697135 9.36867C0.000697135 10.6601 -0.0110216 11.9444 0.0616346 13.2359C0.134291 14.7359 0.476478 16.0671 1.57335 17.164C2.67257 18.2632 4.00148 18.603 5.50148 18.6757C6.79523 18.7484 8.07726 18.7366 9.36866 18.7366C10.6624 18.7366 11.9444 18.7484 13.2359 18.6757C14.7359 18.603 16.0671 18.2609 17.164 17.164C18.2632 16.0648 18.603 14.7359 18.6757 13.2359C18.7507 11.9444 18.7366 10.6624 18.7366 9.36867ZM9.36632 14.1757C6.70617 14.1757 4.55929 12.0288 4.55929 9.36867C4.55929 6.70851 6.70617 4.56163 9.36632 4.56163C12.0265 4.56163 14.1734 6.70851 14.1734 9.36867C14.1734 12.0288 12.0265 14.1757 9.36632 14.1757ZM14.3702 5.48742C13.7491 5.48742 13.2476 4.98585 13.2476 4.36476C13.2476 3.74367 13.7491 3.2421 14.3702 3.2421C14.9913 3.2421 15.4929 3.74367 15.4929 4.36476C15.4931 4.51224 15.4642 4.65831 15.4078 4.7946C15.3515 4.93089 15.2688 5.05473 15.1645 5.15901C15.0602 5.2633 14.9364 5.34598 14.8001 5.40234C14.6638 5.45869 14.5177 5.4876 14.3702 5.48742Z" fill="#70737C"/></symbol><symbol id="icon-search" viewBox="0 0 16 16" fill="none"><path d="M15.7753 14.6511L12.8091 11.7067C13.9605 10.2699 14.5181 8.44635 14.3672 6.61085C14.2164 4.77535 13.3685 3.06745 11.998 1.83834C10.6275 0.609226 8.83851 -0.0476794 6.9989 0.00269722C5.15928 0.0530739 3.40887 0.806903 2.10758 2.10918C0.806291 3.41146 0.0530336 5.1632 0.00269517 7.00421C-0.0476432 8.84523 0.608763 10.6356 1.83694 12.0071C3.06512 13.3787 4.77172 14.2272 6.60583 14.3781C8.43994 14.5291 10.2621 13.9711 11.6978 12.8188L14.64 15.7633C14.7143 15.8383 14.8028 15.8978 14.9002 15.9385C14.9976 15.9791 15.1021 16 15.2077 16C15.3132 16 15.4177 15.9791 15.5152 15.9385C15.6126 15.8978 15.701 15.8383 15.7753 15.7633C15.9194 15.6141 16 15.4147 16 15.2072C16 14.9997 15.9194 14.8003 15.7753 14.6511ZM7.21243 12.8188C6.10552 12.8188 5.02346 12.4903 4.10309 11.8749C3.18272 11.2595 2.46538 10.3847 2.04178 9.36129C1.61818 8.33786 1.50735 7.2117 1.7233 6.12523C1.93925 5.03875 2.47228 4.04076 3.25499 3.25746C4.0377 2.47416 5.03493 1.94072 6.12058 1.72461C7.20622 1.50849 8.33153 1.61941 9.35419 2.04333C10.3768 2.46725 11.2509 3.18514 11.8659 4.1062C12.4809 5.02727 12.8091 6.11015 12.8091 7.21791C12.8091 8.70337 12.2195 10.128 11.1699 11.1784C10.1203 12.2287 8.69676 12.8188 7.21243 12.8188Z" fill="#70737C"/></symbol><symbol id="icon-star" viewBox="0 0 14 13" fill="none"><path d="M13.3333 5.09397C13.4 4.76064 13.1333 4.36064 12.8 4.36064L9 3.8273L7.26667 0.360636C7.2 0.227303 7.13333 0.160636 7 0.0939693C6.66667 -0.106031 6.26667 0.0273027 6.06667 0.360636L4.4 3.8273L0.6 4.36064C0.4 4.36064 0.266667 4.4273 0.2 4.56064C-0.0666667 4.8273 -0.0666667 5.2273 0.2 5.49397L2.93333 8.16064L2.26667 11.9606C2.26667 12.094 2.26667 12.2273 2.33333 12.3606C2.53333 12.694 2.93333 12.8273 3.26667 12.6273L6.66667 10.8273L10.0667 12.6273C10.1333 12.694 10.2667 12.694 10.4 12.694C10.4667 12.694 10.4667 12.694 10.5333 12.694C10.8667 12.6273 11.1333 12.294 11.0667 11.894L10.4 8.09397L13.1333 5.4273C13.2667 5.36064 13.3333 5.2273 13.3333 5.09397Z" fill="#FFCF55"/></symbol></svg>